<svg width="68" height="46" viewBox="0 0 68 46" fill="none" xmlns="http://www.w3.org/2000/svg">
<path d="M9.90317 33.19L8.11305 39.9527C11.7729 39.4753 15.605 37.2343 17.0636 36.1735C25.0197 38.3615 30.1912 37.4664 36.9539 35.3779C46.3023 32.4909 58.137 16.1295 41.9265 6.13922C28.242 -2.29425 14.8757 2.62528 9.90317 6.13922C-5.41239 16.1838 3.63769 29.5103 9.90317 33.19Z" stroke="#38B0AA" stroke-width="2.9619"/>
<path d="M55.0544 21.7537C53.1449 31.8579 43.8496 37.699 39.4406 39.3566C42.4572 41.9091 50.3205 46.1192 57.6402 42.539C58.5153 44.1302 60.922 44.4617 62.016 44.4286C61.3862 43.6993 60.5044 41.7832 62.016 39.9533C71.6429 29.2125 61.3862 23.3449 55.0544 21.7537Z" stroke="#38B1AB" stroke-width="2.9619"/>
</svg>
