<svg width="56" height="38" viewBox="0 0 56 38" fill="none" xmlns="http://www.w3.org/2000/svg">
<path d="M8.16842 27.3759L6.69188 32.9539C9.71062 32.5602 12.8715 30.7118 14.0745 29.8368C20.6369 31.6415 24.9025 30.9032 30.4805 29.1806C38.1914 26.7993 47.9529 13.3039 34.582 5.06375C23.2947 -1.8924 12.2699 2.16535 8.16842 5.06375C-4.46424 13.3488 3.0005 24.3408 8.16842 27.3759Z" stroke="#38B0AA" stroke-width="2.44305"/>
<path d="M45.4098 17.9423C43.8348 26.2765 36.1677 31.0944 32.5311 32.4616C35.0193 34.567 41.5051 38.0396 47.5425 35.0865C48.2644 36.399 50.2495 36.6724 51.1519 36.6451C50.6323 36.0435 49.905 34.4631 51.1519 32.9538C59.0924 24.0945 50.6323 19.2547 45.4098 17.9423Z" stroke="#38B1AB" stroke-width="2.44305"/>
</svg>
