<svg width="26" height="27" viewBox="0 0 26 27" fill="none" xmlns="http://www.w3.org/2000/svg">
<g clip-path="url(#clip0_16_13)">
<path d="M12.7232 5.27267C12.527 5.47918 12.4184 5.75418 12.4205 6.03955C12.4212 6.27035 12.4928 6.49531 12.6255 6.6838C12.7582 6.8723 12.9455 7.01517 13.162 7.09298C13.3785 7.17079 13.6136 7.17974 13.8353 7.11863C14.0571 7.05752 14.2547 6.92931 14.4012 6.75145C14.4012 6.79196 14.4012 6.82958 14.4012 6.8701C14.4019 7.18363 14.3109 7.49048 14.1396 7.75267C13.9683 8.01486 13.7242 8.22088 13.4375 8.34524C13.1507 8.4696 12.834 8.50684 12.5263 8.45235C12.2187 8.39785 11.9338 8.25402 11.7068 8.03865C11.4798 7.82328 11.3207 7.54582 11.2491 7.24061C11.1776 6.93541 11.1968 6.61585 11.3044 6.32149C11.4119 6.02713 11.6031 5.77089 11.8543 5.58447C12.1054 5.39805 12.4055 5.28965 12.7175 5.27267H12.7232ZM12.7232 5.27267C12.527 5.47918 12.4184 5.75418 12.4205 6.03955C12.4212 6.27035 12.4928 6.49531 12.6255 6.6838C12.7582 6.8723 12.9455 7.01517 13.162 7.09298C13.3785 7.17079 13.6136 7.17974 13.8353 7.11863C14.0571 7.05752 14.2547 6.92931 14.4012 6.75145C14.4012 6.79196 14.4012 6.82958 14.4012 6.8701C14.4019 7.18363 14.3109 7.49048 14.1396 7.75267C13.9683 8.01486 13.7242 8.22088 13.4375 8.34524C13.1507 8.4696 12.834 8.50684 12.5263 8.45235C12.2187 8.39785 11.9338 8.25402 11.7068 8.03865C11.4798 7.82328 11.3207 7.54582 11.2491 7.24061C11.1776 6.93541 11.1968 6.61585 11.3044 6.32149C11.4119 6.02713 11.6031 5.77089 11.8543 5.58447C12.1054 5.39805 12.4055 5.28965 12.7175 5.27267H12.7232ZM12.7232 5.27267C12.527 5.47918 12.4184 5.75418 12.4205 6.03955C12.4212 6.27035 12.4928 6.49531 12.6255 6.6838C12.7582 6.8723 12.9455 7.01517 13.162 7.09298C13.3785 7.17079 13.6136 7.17974 13.8353 7.11863C14.0571 7.05752 14.2547 6.92931 14.4012 6.75145C14.4012 6.79196 14.4012 6.82958 14.4012 6.8701C14.4019 7.18363 14.3109 7.49048 14.1396 7.75267C13.9683 8.01486 13.7242 8.22088 13.4375 8.34524C13.1507 8.4696 12.834 8.50684 12.5263 8.45235C12.2187 8.39785 11.9338 8.25402 11.7068 8.03865C11.4798 7.82328 11.3207 7.54582 11.2491 7.24061C11.1776 6.93541 11.1968 6.61585 11.3044 6.32149C11.4119 6.02713 11.6031 5.77089 11.8543 5.58447C12.1054 5.39805 12.4055 5.28965 12.7175 5.27267H12.7232ZM12.7232 5.27267C12.527 5.47918 12.4184 5.75418 12.4205 6.03955C12.4212 6.27035 12.4928 6.49531 12.6255 6.6838C12.7582 6.8723 12.9455 7.01517 13.162 7.09298C13.3785 7.17079 13.6136 7.17974 13.8353 7.11863C14.0571 7.05752 14.2547 6.92931 14.4012 6.75145C14.4012 6.79196 14.4012 6.82958 14.4012 6.8701C14.4019 7.18363 14.3109 7.49048 14.1396 7.75267C13.9683 8.01486 13.7242 8.22088 13.4375 8.34524C13.1507 8.4696 12.834 8.50684 12.5263 8.45235C12.2187 8.39785 11.9338 8.25402 11.7068 8.03865C11.4798 7.82328 11.3207 7.54582 11.2491 7.24061C11.1776 6.93541 11.1968 6.61585 11.3044 6.32149C11.4119 6.02713 11.6031 5.77089 11.8543 5.58447C12.1054 5.39805 12.4055 5.28965 12.7175 5.27267H12.7232ZM12.7232 5.27267C12.527 5.47918 12.4184 5.75418 12.4205 6.03955C12.4212 6.27035 12.4928 6.49531 12.6255 6.6838C12.7582 6.8723 12.9455 7.01517 13.162 7.09298C13.3785 7.17079 13.6136 7.17974 13.8353 7.11863C14.0571 7.05752 14.2547 6.92931 14.4012 6.75145C14.4012 6.79196 14.4012 6.82958 14.4012 6.8701C14.4019 7.18363 14.3109 7.49048 14.1396 7.75267C13.9683 8.01486 13.7242 8.22088 13.4375 8.34524C13.1507 8.4696 12.834 8.50684 12.5263 8.45235C12.2187 8.39785 11.9338 8.25402 11.7068 8.03865C11.4798 7.82328 11.3207 7.54582 11.2491 7.24061C11.1776 6.93541 11.1968 6.61585 11.3044 6.32149C11.4119 6.02713 11.6031 5.77089 11.8543 5.58447C12.1054 5.39805 12.4055 5.28965 12.7175 5.27267H12.7232ZM12.7232 5.27267C12.527 5.47918 12.4184 5.75418 12.4205 6.03955C12.4212 6.27035 12.4928 6.49531 12.6255 6.6838C12.7582 6.8723 12.9455 7.01517 13.162 7.09298C13.3785 7.17079 13.6136 7.17974 13.8353 7.11863C14.0571 7.05752 14.2547 6.92931 14.4012 6.75145C14.4012 6.79196 14.4012 6.82958 14.4012 6.8701C14.4019 7.18363 14.3109 7.49048 14.1396 7.75267C13.9683 8.01486 13.7242 8.22088 13.4375 8.34524C13.1507 8.4696 12.834 8.50684 12.5263 8.45235C12.2187 8.39785 11.9338 8.25402 11.7068 8.03865C11.4798 7.82328 11.3207 7.54582 11.2491 7.24061C11.1776 6.93541 11.1968 6.61585 11.3044 6.32149C11.4119 6.02713 11.6031 5.77089 11.8543 5.58447C12.1054 5.39805 12.4055 5.28965 12.7175 5.27267H12.7232ZM12.7232 5.27267C12.527 5.47918 12.4184 5.75418 12.4205 6.03955C12.4212 6.27035 12.4928 6.49531 12.6255 6.6838C12.7582 6.8723 12.9455 7.01517 13.162 7.09298C13.3785 7.17079 13.6136 7.17974 13.8353 7.11863C14.0571 7.05752 14.2547 6.92931 14.4012 6.75145C14.4012 6.79196 14.4012 6.82958 14.4012 6.8701C14.4019 7.18363 14.3109 7.49048 14.1396 7.75267C13.9683 8.01486 13.7242 8.22088 13.4375 8.34524C13.1507 8.4696 12.834 8.50684 12.5263 8.45235C12.2187 8.39785 11.9338 8.25402 11.7068 8.03865C11.4798 7.82328 11.3207 7.54582 11.2491 7.24061C11.1776 6.93541 11.1968 6.61585 11.3044 6.32149C11.4119 6.02713 11.6031 5.77089 11.8543 5.58447C12.1054 5.39805 12.4055 5.28965 12.7175 5.27267H12.7232ZM12.7232 5.27267C12.527 5.47918 12.4184 5.75418 12.4205 6.03955C12.4212 6.27035 12.4928 6.49531 12.6255 6.6838C12.7582 6.8723 12.9455 7.01517 13.162 7.09298C13.3785 7.17079 13.6136 7.17974 13.8353 7.11863C14.0571 7.05752 14.2547 6.92931 14.4012 6.75145C14.4012 6.79196 14.4012 6.82958 14.4012 6.8701C14.4019 7.18363 14.3109 7.49048 14.1396 7.75267C13.9683 8.01486 13.7242 8.22088 13.4375 8.34524C13.1507 8.4696 12.834 8.50684 12.5263 8.45235C12.2187 8.39785 11.9338 8.25402 11.7068 8.03865C11.4798 7.82328 11.3207 7.54582 11.2491 7.24061C11.1776 6.93541 11.1968 6.61585 11.3044 6.32149C11.4119 6.02713 11.6031 5.77089 11.8543 5.58447C12.1054 5.39805 12.4055 5.28965 12.7175 5.27267H12.7232ZM13.4498 3.17977e-07C15.4765 -0.000473429 17.477 0.459886 19.3011 1.34652C21.1252 2.23315 22.7255 3.52302 23.9818 5.11929C18.1694 7.69486 15.9292 13.5116 15.7332 15.2219C15.4646 16.3597 15.3301 17.5252 15.3324 18.6945C15.3315 20.7246 15.7435 22.7335 16.5434 24.5981C16.8085 25.2152 17.1148 25.8137 17.4602 26.3894C15.6099 26.9706 13.6563 27.1436 11.7332 26.8964C9.81015 26.6492 7.96303 25.9877 6.31838 24.9572C4.67373 23.9267 3.27043 22.5516 2.2046 20.926C1.13876 19.3004 0.435579 17.4628 0.143221 15.5391C-0.149136 13.6153 -0.0237637 11.6508 0.510752 9.7802C1.04527 7.90959 1.9763 6.17705 3.24006 4.70126C4.50382 3.22546 6.07046 2.04129 7.83266 1.22985C9.59486 0.418413 11.511 -0.00111685 13.4498 3.17977e-07ZM12.8097 9.30675C13.2898 9.30675 13.7592 9.16385 14.1584 8.8961C14.5576 8.62836 14.8688 8.2478 15.0525 7.80256C15.2362 7.35732 15.2843 6.86739 15.1907 6.39473C15.097 5.92206 14.8658 5.48789 14.5263 5.14712C14.1868 4.80635 13.7542 4.57428 13.2833 4.48026C12.8124 4.38624 12.3243 4.43449 11.8807 4.61892C11.4371 4.80334 11.058 5.11566 10.7912 5.51636C10.5245 5.91707 10.3821 6.38817 10.3821 6.8701C10.3821 7.51634 10.6379 8.13611 11.0931 8.59307C11.5484 9.05003 12.1659 9.30675 12.8097 9.30675ZM12.7232 5.27267C12.527 5.47918 12.4184 5.75418 12.4205 6.03955C12.4212 6.27035 12.4928 6.49531 12.6255 6.6838C12.7582 6.8723 12.9455 7.01517 13.162 7.09298C13.3785 7.17079 13.6136 7.17974 13.8353 7.11863C14.0571 7.05752 14.2547 6.92931 14.4012 6.75145C14.4012 6.79196 14.4012 6.82958 14.4012 6.8701C14.4019 7.18363 14.3109 7.49048 14.1396 7.75267C13.9683 8.01486 13.7242 8.22088 13.4375 8.34524C13.1507 8.4696 12.834 8.50684 12.5263 8.45235C12.2187 8.39785 11.9338 8.25402 11.7068 8.03865C11.4798 7.82328 11.3207 7.54582 11.2491 7.24061C11.1776 6.93541 11.1968 6.61585 11.3044 6.32149C11.4119 6.02713 11.6031 5.77089 11.8543 5.58447C12.1054 5.39805 12.4055 5.28965 12.7175 5.27267H12.7232ZM12.7232 5.27267C12.527 5.47918 12.4184 5.75418 12.4205 6.03955C12.4212 6.27035 12.4928 6.49531 12.6255 6.6838C12.7582 6.8723 12.9455 7.01517 13.162 7.09298C13.3785 7.17079 13.6136 7.17974 13.8353 7.11863C14.0571 7.05752 14.2547 6.92931 14.4012 6.75145C14.4012 6.79196 14.4012 6.82958 14.4012 6.8701C14.4019 7.18363 14.3109 7.49048 14.1396 7.75267C13.9683 8.01486 13.7242 8.22088 13.4375 8.34524C13.1507 8.4696 12.834 8.50684 12.5263 8.45235C12.2187 8.39785 11.9338 8.25402 11.7068 8.03865C11.4798 7.82328 11.3207 7.54582 11.2491 7.24061C11.1776 6.93541 11.1968 6.61585 11.3044 6.32149C11.4119 6.02713 11.6031 5.77089 11.8543 5.58447C12.1054 5.39805 12.4055 5.28965 12.7175 5.27267H12.7232ZM12.7232 5.27267C12.527 5.47918 12.4184 5.75418 12.4205 6.03955C12.4212 6.27035 12.4928 6.49531 12.6255 6.6838C12.7582 6.8723 12.9455 7.01517 13.162 7.09298C13.3785 7.17079 13.6136 7.17974 13.8353 7.11863C14.0571 7.05752 14.2547 6.92931 14.4012 6.75145C14.4012 6.79196 14.4012 6.82958 14.4012 6.8701C14.4019 7.18363 14.3109 7.49048 14.1396 7.75267C13.9683 8.01486 13.7242 8.22088 13.4375 8.34524C13.1507 8.4696 12.834 8.50684 12.5263 8.45235C12.2187 8.39785 11.9338 8.25402 11.7068 8.03865C11.4798 7.82328 11.3207 7.54582 11.2491 7.24061C11.1776 6.93541 11.1968 6.61585 11.3044 6.32149C11.4119 6.02713 11.6031 5.77089 11.8543 5.58447C12.1054 5.39805 12.4055 5.28965 12.7175 5.27267H12.7232ZM12.7232 5.27267C12.527 5.47918 12.4184 5.75418 12.4205 6.03955C12.4212 6.27035 12.4928 6.49531 12.6255 6.6838C12.7582 6.8723 12.9455 7.01517 13.162 7.09298C13.3785 7.17079 13.6136 7.17974 13.8353 7.11863C14.0571 7.05752 14.2547 6.92931 14.4012 6.75145C14.4012 6.79196 14.4012 6.82958 14.4012 6.8701C14.4019 7.18363 14.3109 7.49048 14.1396 7.75267C13.9683 8.01486 13.7242 8.22088 13.4375 8.34524C13.1507 8.4696 12.834 8.50684 12.5263 8.45235C12.2187 8.39785 11.9338 8.25402 11.7068 8.03865C11.4798 7.82328 11.3207 7.54582 11.2491 7.24061C11.1776 6.93541 11.1968 6.61585 11.3044 6.32149C11.4119 6.02713 11.6031 5.77089 11.8543 5.58447C12.1054 5.39805 12.4055 5.28965 12.7175 5.27267H12.7232ZM12.7232 5.27267C12.527 5.47918 12.4184 5.75418 12.4205 6.03955C12.4212 6.27035 12.4928 6.49531 12.6255 6.6838C12.7582 6.8723 12.9455 7.01517 13.162 7.09298C13.3785 7.17079 13.6136 7.17974 13.8353 7.11863C14.0571 7.05752 14.2547 6.92931 14.4012 6.75145C14.4012 6.79196 14.4012 6.82958 14.4012 6.8701C14.4019 7.18363 14.3109 7.49048 14.1396 7.75267C13.9683 8.01486 13.7242 8.22088 13.4375 8.34524C13.1507 8.4696 12.834 8.50684 12.5263 8.45235C12.2187 8.39785 11.9338 8.25402 11.7068 8.03865C11.4798 7.82328 11.3207 7.54582 11.2491 7.24061C11.1776 6.93541 11.1968 6.61585 11.3044 6.32149C11.4119 6.02713 11.6031 5.77089 11.8543 5.58447C12.1054 5.39805 12.4055 5.28965 12.7175 5.27267H12.7232ZM12.7232 5.27267C12.527 5.47918 12.4184 5.75418 12.4205 6.03955C12.4212 6.27035 12.4928 6.49531 12.6255 6.6838C12.7582 6.8723 12.9455 7.01517 13.162 7.09298C13.3785 7.17079 13.6136 7.17974 13.8353 7.11863C14.0571 7.05752 14.2547 6.92931 14.4012 6.75145C14.4012 6.79196 14.4012 6.82958 14.4012 6.8701C14.4019 7.18363 14.3109 7.49048 14.1396 7.75267C13.9683 8.01486 13.7242 8.22088 13.4375 8.34524C13.1507 8.4696 12.834 8.50684 12.5263 8.45235C12.2187 8.39785 11.9338 8.25402 11.7068 8.03865C11.4798 7.82328 11.3207 7.54582 11.2491 7.24061C11.1776 6.93541 11.1968 6.61585 11.3044 6.32149C11.4119 6.02713 11.6031 5.77089 11.8543 5.58447C12.1054 5.39805 12.4055 5.28965 12.7175 5.27267H12.7232ZM12.7232 5.27267C12.527 5.47918 12.4184 5.75418 12.4205 6.03955C12.4212 6.27035 12.4928 6.49531 12.6255 6.6838C12.7582 6.8723 12.9455 7.01517 13.162 7.09298C13.3785 7.17079 13.6136 7.17974 13.8353 7.11863C14.0571 7.05752 14.2547 6.92931 14.4012 6.75145C14.4012 6.79196 14.4012 6.82958 14.4012 6.8701C14.4019 7.18363 14.3109 7.49048 14.1396 7.75267C13.9683 8.01486 13.7242 8.22088 13.4375 8.34524C13.1507 8.4696 12.834 8.50684 12.5263 8.45235C12.2187 8.39785 11.9338 8.25402 11.7068 8.03865C11.4798 7.82328 11.3207 7.54582 11.2491 7.24061C11.1776 6.93541 11.1968 6.61585 11.3044 6.32149C11.4119 6.02713 11.6031 5.77089 11.8543 5.58447C12.1054 5.39805 12.4055 5.28965 12.7175 5.27267H12.7232ZM12.7232 5.27267C12.527 5.47918 12.4184 5.75418 12.4205 6.03955C12.4212 6.27035 12.4928 6.49531 12.6255 6.6838C12.7582 6.8723 12.9455 7.01517 13.162 7.09298C13.3785 7.17079 13.6136 7.17974 13.8353 7.11863C14.0571 7.05752 14.2547 6.92931 14.4012 6.75145C14.4012 6.79196 14.4012 6.82958 14.4012 6.8701C14.4019 7.18363 14.3109 7.49048 14.1396 7.75267C13.9683 8.01486 13.7242 8.22088 13.4375 8.34524C13.1507 8.4696 12.834 8.50684 12.5263 8.45235C12.2187 8.39785 11.9338 8.25402 11.7068 8.03865C11.4798 7.82328 11.3207 7.54582 11.2491 7.24061C11.1776 6.93541 11.1968 6.61585 11.3044 6.32149C11.4119 6.02713 11.6031 5.77089 11.8543 5.58447C12.1054 5.39805 12.4055 5.28965 12.7175 5.27267H12.7232ZM12.7232 5.27267C12.527 5.47918 12.4184 5.75418 12.4205 6.03955C12.4212 6.27035 12.4928 6.49531 12.6255 6.6838C12.7582 6.8723 12.9455 7.01517 13.162 7.09298C13.3785 7.17079 13.6136 7.17974 13.8353 7.11863C14.0571 7.05752 14.2547 6.92931 14.4012 6.75145C14.4012 6.79196 14.4012 6.82958 14.4012 6.8701C14.4019 7.18363 14.3109 7.49048 14.1396 7.75267C13.9683 8.01486 13.7242 8.22088 13.4375 8.34524C13.1507 8.4696 12.834 8.50684 12.5263 8.45235C12.2187 8.39785 11.9338 8.25402 11.7068 8.03865C11.4798 7.82328 11.3207 7.54582 11.2491 7.24061C11.1776 6.93541 11.1968 6.61585 11.3044 6.32149C11.4119 6.02713 11.6031 5.77089 11.8543 5.58447C12.1054 5.39805 12.4055 5.28965 12.7175 5.27267H12.7232Z" fill="url(#paint0_linear_16_13)"/>
<path d="M12.7232 5.27267C12.527 5.47918 12.4184 5.75418 12.4205 6.03955C12.4212 6.27035 12.4928 6.49531 12.6255 6.6838C12.7582 6.8723 12.9455 7.01517 13.162 7.09298C13.3785 7.17079 13.6136 7.17974 13.8353 7.11863C14.0571 7.05752 14.2547 6.92931 14.4012 6.75145C14.4012 6.79196 14.4012 6.82958 14.4012 6.8701C14.4019 7.18363 14.3109 7.49048 14.1396 7.75267C13.9683 8.01486 13.7242 8.22088 13.4375 8.34524C13.1507 8.4696 12.834 8.50684 12.5263 8.45235C12.2187 8.39785 11.9338 8.25402 11.7068 8.03865C11.4798 7.82328 11.3207 7.54582 11.2491 7.24061C11.1776 6.93541 11.1968 6.61585 11.3044 6.32149C11.4119 6.02713 11.6031 5.77089 11.8543 5.58447C12.1054 5.39805 12.4055 5.28965 12.7175 5.27267H12.7232Z" fill="white"/>
<path d="M11.2125 6.8701C11.2125 7.08063 11.2538 7.28911 11.334 7.48362C11.4143 7.67813 11.532 7.85487 11.6803 8.00374C11.8286 8.15261 12.0047 8.27071 12.1985 8.35127C12.3923 8.43184 12.6 8.47331 12.8097 8.47331C13.0195 8.47331 13.2272 8.43184 13.421 8.35127C13.6147 8.27071 13.7908 8.15261 13.9391 8.00374C14.0875 7.85487 14.2051 7.67813 14.2854 7.48362C14.3656 7.28911 14.407 7.08063 14.407 6.8701C14.407 6.82958 14.407 6.79196 14.407 6.75145C14.2604 6.92931 14.0628 7.05752 13.8411 7.11863C13.6194 7.17974 13.3843 7.17079 13.1678 7.09298C12.9513 7.01517 12.764 6.8723 12.6313 6.6838C12.4986 6.49531 12.427 6.27035 12.4263 6.03955C12.4242 5.75418 12.5328 5.47918 12.729 5.27267C12.32 5.29202 11.9342 5.46883 11.6518 5.76634C11.3694 6.06384 11.212 6.45915 11.2125 6.8701Z" fill="#3F4898"/>
<path d="M23.7454 6.36656C20.8623 7.84534 18.7057 10.2791 17.3074 13.5058C20.6922 12.6145 24.224 14.4695 25.1581 18.0984C26.7323 14.2958 26 9.78714 23.7454 6.36656Z" fill="url(#paint1_linear_16_13)"/>
</g>
<defs>
<linearGradient id="paint0_linear_16_13" x1="11.9794" y1="-0.130225" x2="12.0258" y2="26.4502" gradientUnits="userSpaceOnUse">
<stop stop-color="#1F5FA4"/>
<stop offset="1" stop-color="#392379"/>
</linearGradient>
<linearGradient id="paint1_linear_16_13" x1="21.6695" y1="4.71994" x2="21.6492" y2="16.4547" gradientUnits="userSpaceOnUse">
<stop stop-color="#392379"/>
<stop offset="1" stop-color="#1F5FA4"/>
</linearGradient>
<clipPath id="clip0_16_13">
<rect width="26" height="27" fill="white" transform="matrix(-1 0 0 1 26 0)"/>
</clipPath>
</defs>
</svg>
