<svg width="182" height="50" viewBox="0 0 182 50" fill="none" xmlns="http://www.w3.org/2000/svg">
<g clip-path="url(#clip0_149_5)">
<path d="M23.1563 9.59626C22.7992 9.97212 22.6016 10.4726 22.6053 10.992C22.6067 11.412 22.737 11.8215 22.9785 12.1645C23.22 12.5076 23.5609 12.7676 23.9549 12.9092C24.3489 13.0508 24.7768 13.0671 25.1804 12.9559C25.5839 12.8447 25.9435 12.6113 26.2102 12.2876C26.2102 12.3614 26.2102 12.4298 26.2102 12.5036C26.2114 13.0742 26.0459 13.6327 25.7342 14.1099C25.4224 14.5871 24.9781 14.962 24.4563 15.1883C23.9344 15.4147 23.3578 15.4825 22.798 15.3833C22.2381 15.2841 21.7195 15.0223 21.3064 14.6303C20.8932 14.2384 20.6036 13.7334 20.4735 13.1779C20.3433 12.6224 20.3783 12.0409 20.574 11.5051C20.7698 10.9694 21.1177 10.503 21.5748 10.1637C22.032 9.82446 22.5781 9.62716 23.1458 9.59626H23.1563ZM23.1563 9.59626C22.7992 9.97212 22.6016 10.4726 22.6053 10.992C22.6067 11.412 22.737 11.8215 22.9785 12.1645C23.22 12.5076 23.5609 12.7676 23.9549 12.9092C24.3489 13.0508 24.7768 13.0671 25.1804 12.9559C25.5839 12.8447 25.9435 12.6113 26.2102 12.2876C26.2102 12.3614 26.2102 12.4298 26.2102 12.5036C26.2114 13.0742 26.0459 13.6327 25.7342 14.1099C25.4224 14.5871 24.9781 14.962 24.4563 15.1883C23.9344 15.4147 23.3578 15.4825 22.798 15.3833C22.2381 15.2841 21.7195 15.0223 21.3064 14.6303C20.8932 14.2384 20.6036 13.7334 20.4735 13.1779C20.3433 12.6224 20.3783 12.0409 20.574 11.5051C20.7698 10.9694 21.1177 10.503 21.5748 10.1637C22.032 9.82446 22.5781 9.62716 23.1458 9.59626H23.1563ZM23.1563 9.59626C22.7992 9.97212 22.6016 10.4726 22.6053 10.992C22.6067 11.412 22.737 11.8215 22.9785 12.1645C23.22 12.5076 23.5609 12.7676 23.9549 12.9092C24.3489 13.0508 24.7768 13.0671 25.1804 12.9559C25.5839 12.8447 25.9435 12.6113 26.2102 12.2876C26.2102 12.3614 26.2102 12.4298 26.2102 12.5036C26.2114 13.0742 26.0459 13.6327 25.7342 14.1099C25.4224 14.5871 24.9781 14.962 24.4563 15.1883C23.9344 15.4147 23.3578 15.4825 22.798 15.3833C22.2381 15.2841 21.7195 15.0223 21.3064 14.6303C20.8932 14.2384 20.6036 13.7334 20.4735 13.1779C20.3433 12.6224 20.3783 12.0409 20.574 11.5051C20.7698 10.9694 21.1177 10.503 21.5748 10.1637C22.032 9.82446 22.5781 9.62716 23.1458 9.59626H23.1563ZM23.1563 9.59626C22.7992 9.97212 22.6016 10.4726 22.6053 10.992C22.6067 11.412 22.737 11.8215 22.9785 12.1645C23.22 12.5076 23.5609 12.7676 23.9549 12.9092C24.3489 13.0508 24.7768 13.0671 25.1804 12.9559C25.5839 12.8447 25.9435 12.6113 26.2102 12.2876C26.2102 12.3614 26.2102 12.4298 26.2102 12.5036C26.2114 13.0742 26.0459 13.6327 25.7342 14.1099C25.4224 14.5871 24.9781 14.962 24.4563 15.1883C23.9344 15.4147 23.3578 15.4825 22.798 15.3833C22.2381 15.2841 21.7195 15.0223 21.3064 14.6303C20.8932 14.2384 20.6036 13.7334 20.4735 13.1779C20.3433 12.6224 20.3783 12.0409 20.574 11.5051C20.7698 10.9694 21.1177 10.503 21.5748 10.1637C22.032 9.82446 22.5781 9.62716 23.1458 9.59626H23.1563ZM23.1563 9.59626C22.7992 9.97212 22.6016 10.4726 22.6053 10.992C22.6067 11.412 22.737 11.8215 22.9785 12.1645C23.22 12.5076 23.5609 12.7676 23.9549 12.9092C24.3489 13.0508 24.7768 13.0671 25.1804 12.9559C25.5839 12.8447 25.9435 12.6113 26.2102 12.2876C26.2102 12.3614 26.2102 12.4298 26.2102 12.5036C26.2114 13.0742 26.0459 13.6327 25.7342 14.1099C25.4224 14.5871 24.9781 14.962 24.4563 15.1883C23.9344 15.4147 23.3578 15.4825 22.798 15.3833C22.2381 15.2841 21.7195 15.0223 21.3064 14.6303C20.8932 14.2384 20.6036 13.7334 20.4735 13.1779C20.3433 12.6224 20.3783 12.0409 20.574 11.5051C20.7698 10.9694 21.1177 10.503 21.5748 10.1637C22.032 9.82446 22.5781 9.62716 23.1458 9.59626H23.1563ZM23.1563 9.59626C22.7992 9.97212 22.6016 10.4726 22.6053 10.992C22.6067 11.412 22.737 11.8215 22.9785 12.1645C23.22 12.5076 23.5609 12.7676 23.9549 12.9092C24.3489 13.0508 24.7768 13.0671 25.1804 12.9559C25.5839 12.8447 25.9435 12.6113 26.2102 12.2876C26.2102 12.3614 26.2102 12.4298 26.2102 12.5036C26.2114 13.0742 26.0459 13.6327 25.7342 14.1099C25.4224 14.5871 24.9781 14.962 24.4563 15.1883C23.9344 15.4147 23.3578 15.4825 22.798 15.3833C22.2381 15.2841 21.7195 15.0223 21.3064 14.6303C20.8932 14.2384 20.6036 13.7334 20.4735 13.1779C20.3433 12.6224 20.3783 12.0409 20.574 11.5051C20.7698 10.9694 21.1177 10.503 21.5748 10.1637C22.032 9.82446 22.5781 9.62716 23.1458 9.59626H23.1563ZM23.1563 9.59626C22.7992 9.97212 22.6016 10.4726 22.6053 10.992C22.6067 11.412 22.737 11.8215 22.9785 12.1645C23.22 12.5076 23.5609 12.7676 23.9549 12.9092C24.3489 13.0508 24.7768 13.0671 25.1804 12.9559C25.5839 12.8447 25.9435 12.6113 26.2102 12.2876C26.2102 12.3614 26.2102 12.4298 26.2102 12.5036C26.2114 13.0742 26.0459 13.6327 25.7342 14.1099C25.4224 14.5871 24.9781 14.962 24.4563 15.1883C23.9344 15.4147 23.3578 15.4825 22.798 15.3833C22.2381 15.2841 21.7195 15.0223 21.3064 14.6303C20.8932 14.2384 20.6036 13.7334 20.4735 13.1779C20.3433 12.6224 20.3783 12.0409 20.574 11.5051C20.7698 10.9694 21.1177 10.503 21.5748 10.1637C22.032 9.82446 22.5781 9.62716 23.1458 9.59626H23.1563ZM23.1563 9.59626C22.7992 9.97212 22.6016 10.4726 22.6053 10.992C22.6067 11.412 22.737 11.8215 22.9785 12.1645C23.22 12.5076 23.5609 12.7676 23.9549 12.9092C24.3489 13.0508 24.7768 13.0671 25.1804 12.9559C25.5839 12.8447 25.9435 12.6113 26.2102 12.2876C26.2102 12.3614 26.2102 12.4298 26.2102 12.5036C26.2114 13.0742 26.0459 13.6327 25.7342 14.1099C25.4224 14.5871 24.9781 14.962 24.4563 15.1883C23.9344 15.4147 23.3578 15.4825 22.798 15.3833C22.2381 15.2841 21.7195 15.0223 21.3064 14.6303C20.8932 14.2384 20.6036 13.7334 20.4735 13.1779C20.3433 12.6224 20.3783 12.0409 20.574 11.5051C20.7698 10.9694 21.1177 10.503 21.5748 10.1637C22.032 9.82446 22.5781 9.62716 23.1458 9.59626H23.1563ZM24.4786 4.05009e-06C28.1673 -0.000858169 31.8082 0.836996 35.128 2.45067C38.4478 4.06434 41.3604 6.4119 43.6469 9.31712C33.0684 14.0046 28.9913 24.5911 28.6345 27.7038C28.1456 29.7746 27.9008 31.8959 27.9051 34.0241C27.9033 37.7188 28.6532 41.375 30.109 44.7685C30.5914 45.8917 31.1489 46.9809 31.7776 48.0287C28.4101 49.0866 24.8545 49.4014 21.3545 48.9515C17.8545 48.5016 14.4928 47.2977 11.4995 45.4222C8.50625 43.5467 5.95224 41.0439 4.01242 38.0854C2.0726 35.1268 0.792808 31.7823 0.260716 28.2811C-0.271375 24.7798 -0.0431963 21.2045 0.929622 17.8C1.90244 14.3955 3.59691 11.2422 5.89696 8.55629C8.19701 5.87035 11.0483 3.71515 14.2555 2.23833C17.4627 0.761515 20.95 -0.0020292 24.4786 4.05009e-06ZM23.3137 16.9383C24.1876 16.9383 25.0418 16.6782 25.7684 16.1909C26.4949 15.7036 27.0612 15.011 27.3956 14.2007C27.73 13.3903 27.8175 12.4987 27.647 11.6384C27.4766 10.7782 27.0558 9.98797 26.4379 9.36776C25.82 8.74756 25.0327 8.32519 24.1757 8.15408C23.3186 7.98296 22.4303 8.07079 21.623 8.40644C20.8156 8.74209 20.1256 9.3105 19.6401 10.0398C19.1546 10.7691 18.8955 11.6265 18.8955 12.5036C18.8955 13.6797 19.361 14.8077 20.1896 15.6394C21.0182 16.4711 22.1419 16.9383 23.3137 16.9383ZM23.1563 9.59626C22.7992 9.97212 22.6016 10.4726 22.6053 10.992C22.6067 11.412 22.737 11.8215 22.9785 12.1645C23.22 12.5076 23.5609 12.7676 23.9549 12.9092C24.3489 13.0508 24.7768 13.0671 25.1804 12.9559C25.5839 12.8447 25.9435 12.6113 26.2102 12.2876C26.2102 12.3614 26.2102 12.4298 26.2102 12.5036C26.2114 13.0742 26.0459 13.6327 25.7342 14.1099C25.4224 14.5871 24.9781 14.962 24.4563 15.1883C23.9344 15.4147 23.3578 15.4825 22.798 15.3833C22.2381 15.2841 21.7195 15.0223 21.3064 14.6303C20.8932 14.2384 20.6036 13.7334 20.4735 13.1779C20.3433 12.6224 20.3783 12.0409 20.574 11.5051C20.7698 10.9694 21.1177 10.503 21.5748 10.1637C22.032 9.82446 22.5781 9.62716 23.1458 9.59626H23.1563ZM23.1563 9.59626C22.7992 9.97212 22.6016 10.4726 22.6053 10.992C22.6067 11.412 22.737 11.8215 22.9785 12.1645C23.22 12.5076 23.5609 12.7676 23.9549 12.9092C24.3489 13.0508 24.7768 13.0671 25.1804 12.9559C25.5839 12.8447 25.9435 12.6113 26.2102 12.2876C26.2102 12.3614 26.2102 12.4298 26.2102 12.5036C26.2114 13.0742 26.0459 13.6327 25.7342 14.1099C25.4224 14.5871 24.9781 14.962 24.4563 15.1883C23.9344 15.4147 23.3578 15.4825 22.798 15.3833C22.2381 15.2841 21.7195 15.0223 21.3064 14.6303C20.8932 14.2384 20.6036 13.7334 20.4735 13.1779C20.3433 12.6224 20.3783 12.0409 20.574 11.5051C20.7698 10.9694 21.1177 10.503 21.5748 10.1637C22.032 9.82446 22.5781 9.62716 23.1458 9.59626H23.1563ZM23.1563 9.59626C22.7992 9.97212 22.6016 10.4726 22.6053 10.992C22.6067 11.412 22.737 11.8215 22.9785 12.1645C23.22 12.5076 23.5609 12.7676 23.9549 12.9092C24.3489 13.0508 24.7768 13.0671 25.1804 12.9559C25.5839 12.8447 25.9435 12.6113 26.2102 12.2876C26.2102 12.3614 26.2102 12.4298 26.2102 12.5036C26.2114 13.0742 26.0459 13.6327 25.7342 14.1099C25.4224 14.5871 24.9781 14.962 24.4563 15.1883C23.9344 15.4147 23.3578 15.4825 22.798 15.3833C22.2381 15.2841 21.7195 15.0223 21.3064 14.6303C20.8932 14.2384 20.6036 13.7334 20.4735 13.1779C20.3433 12.6224 20.3783 12.0409 20.574 11.5051C20.7698 10.9694 21.1177 10.503 21.5748 10.1637C22.032 9.82446 22.5781 9.62716 23.1458 9.59626H23.1563ZM23.1563 9.59626C22.7992 9.97212 22.6016 10.4726 22.6053 10.992C22.6067 11.412 22.737 11.8215 22.9785 12.1645C23.22 12.5076 23.5609 12.7676 23.9549 12.9092C24.3489 13.0508 24.7768 13.0671 25.1804 12.9559C25.5839 12.8447 25.9435 12.6113 26.2102 12.2876C26.2102 12.3614 26.2102 12.4298 26.2102 12.5036C26.2114 13.0742 26.0459 13.6327 25.7342 14.1099C25.4224 14.5871 24.9781 14.962 24.4563 15.1883C23.9344 15.4147 23.3578 15.4825 22.798 15.3833C22.2381 15.2841 21.7195 15.0223 21.3064 14.6303C20.8932 14.2384 20.6036 13.7334 20.4735 13.1779C20.3433 12.6224 20.3783 12.0409 20.574 11.5051C20.7698 10.9694 21.1177 10.503 21.5748 10.1637C22.032 9.82446 22.5781 9.62716 23.1458 9.59626H23.1563ZM23.1563 9.59626C22.7992 9.97212 22.6016 10.4726 22.6053 10.992C22.6067 11.412 22.737 11.8215 22.9785 12.1645C23.22 12.5076 23.5609 12.7676 23.9549 12.9092C24.3489 13.0508 24.7768 13.0671 25.1804 12.9559C25.5839 12.8447 25.9435 12.6113 26.2102 12.2876C26.2102 12.3614 26.2102 12.4298 26.2102 12.5036C26.2114 13.0742 26.0459 13.6327 25.7342 14.1099C25.4224 14.5871 24.9781 14.962 24.4563 15.1883C23.9344 15.4147 23.3578 15.4825 22.798 15.3833C22.2381 15.2841 21.7195 15.0223 21.3064 14.6303C20.8932 14.2384 20.6036 13.7334 20.4735 13.1779C20.3433 12.6224 20.3783 12.0409 20.574 11.5051C20.7698 10.9694 21.1177 10.503 21.5748 10.1637C22.032 9.82446 22.5781 9.62716 23.1458 9.59626H23.1563ZM23.1563 9.59626C22.7992 9.97212 22.6016 10.4726 22.6053 10.992C22.6067 11.412 22.737 11.8215 22.9785 12.1645C23.22 12.5076 23.5609 12.7676 23.9549 12.9092C24.3489 13.0508 24.7768 13.0671 25.1804 12.9559C25.5839 12.8447 25.9435 12.6113 26.2102 12.2876C26.2102 12.3614 26.2102 12.4298 26.2102 12.5036C26.2114 13.0742 26.0459 13.6327 25.7342 14.1099C25.4224 14.5871 24.9781 14.962 24.4563 15.1883C23.9344 15.4147 23.3578 15.4825 22.798 15.3833C22.2381 15.2841 21.7195 15.0223 21.3064 14.6303C20.8932 14.2384 20.6036 13.7334 20.4735 13.1779C20.3433 12.6224 20.3783 12.0409 20.574 11.5051C20.7698 10.9694 21.1177 10.503 21.5748 10.1637C22.032 9.82446 22.5781 9.62716 23.1458 9.59626H23.1563ZM23.1563 9.59626C22.7992 9.97212 22.6016 10.4726 22.6053 10.992C22.6067 11.412 22.737 11.8215 22.9785 12.1645C23.22 12.5076 23.5609 12.7676 23.9549 12.9092C24.3489 13.0508 24.7768 13.0671 25.1804 12.9559C25.5839 12.8447 25.9435 12.6113 26.2102 12.2876C26.2102 12.3614 26.2102 12.4298 26.2102 12.5036C26.2114 13.0742 26.0459 13.6327 25.7342 14.1099C25.4224 14.5871 24.9781 14.962 24.4563 15.1883C23.9344 15.4147 23.3578 15.4825 22.798 15.3833C22.2381 15.2841 21.7195 15.0223 21.3064 14.6303C20.8932 14.2384 20.6036 13.7334 20.4735 13.1779C20.3433 12.6224 20.3783 12.0409 20.574 11.5051C20.7698 10.9694 21.1177 10.503 21.5748 10.1637C22.032 9.82446 22.5781 9.62716 23.1458 9.59626H23.1563ZM23.1563 9.59626C22.7992 9.97212 22.6016 10.4726 22.6053 10.992C22.6067 11.412 22.737 11.8215 22.9785 12.1645C23.22 12.5076 23.5609 12.7676 23.9549 12.9092C24.3489 13.0508 24.7768 13.0671 25.1804 12.9559C25.5839 12.8447 25.9435 12.6113 26.2102 12.2876C26.2102 12.3614 26.2102 12.4298 26.2102 12.5036C26.2114 13.0742 26.0459 13.6327 25.7342 14.1099C25.4224 14.5871 24.9781 14.962 24.4563 15.1883C23.9344 15.4147 23.3578 15.4825 22.798 15.3833C22.2381 15.2841 21.7195 15.0223 21.3064 14.6303C20.8932 14.2384 20.6036 13.7334 20.4735 13.1779C20.3433 12.6224 20.3783 12.0409 20.574 11.5051C20.7698 10.9694 21.1177 10.503 21.5748 10.1637C22.032 9.82446 22.5781 9.62716 23.1458 9.59626H23.1563ZM23.1563 9.59626C22.7992 9.97212 22.6016 10.4726 22.6053 10.992C22.6067 11.412 22.737 11.8215 22.9785 12.1645C23.22 12.5076 23.5609 12.7676 23.9549 12.9092C24.3489 13.0508 24.7768 13.0671 25.1804 12.9559C25.5839 12.8447 25.9435 12.6113 26.2102 12.2876C26.2102 12.3614 26.2102 12.4298 26.2102 12.5036C26.2114 13.0742 26.0459 13.6327 25.7342 14.1099C25.4224 14.5871 24.9781 14.962 24.4563 15.1883C23.9344 15.4147 23.3578 15.4825 22.798 15.3833C22.2381 15.2841 21.7195 15.0223 21.3064 14.6303C20.8932 14.2384 20.6036 13.7334 20.4735 13.1779C20.3433 12.6224 20.3783 12.0409 20.574 11.5051C20.7698 10.9694 21.1177 10.503 21.5748 10.1637C22.032 9.82446 22.5781 9.62716 23.1458 9.59626H23.1563Z" fill="url(#paint0_linear_149_5)"/>
<path d="M23.1563 9.59627C22.7992 9.97213 22.6016 10.4726 22.6053 10.992C22.6067 11.412 22.737 11.8215 22.9785 12.1645C23.22 12.5076 23.5609 12.7676 23.9549 12.9092C24.3489 13.0508 24.7768 13.0671 25.1803 12.9559C25.5839 12.8447 25.9435 12.6113 26.2102 12.2876C26.2102 12.3614 26.2102 12.4298 26.2102 12.5036C26.2114 13.0742 26.0459 13.6327 25.7342 14.1099C25.4224 14.5871 24.9781 14.962 24.4562 15.1884C23.9344 15.4147 23.3578 15.4825 22.798 15.3833C22.2381 15.2841 21.7195 15.0223 21.3063 14.6303C20.8932 14.2384 20.6036 13.7334 20.4734 13.1779C20.3433 12.6225 20.3782 12.0409 20.574 11.5051C20.7697 10.9694 21.1177 10.503 21.5748 10.1637C22.0319 9.82447 22.5781 9.62717 23.1458 9.59627H23.1563Z" fill="white"/>
<path d="M20.4067 12.5036C20.4067 12.8868 20.4819 13.2662 20.628 13.6202C20.7741 13.9742 20.9882 14.2959 21.2582 14.5668C21.5281 14.8378 21.8486 15.0527 22.2013 15.1993C22.5539 15.346 22.932 15.4214 23.3137 15.4214C23.6955 15.4214 24.0735 15.346 24.4262 15.1993C24.7789 15.0527 25.0993 14.8378 25.3693 14.5668C25.6392 14.2959 25.8533 13.9742 25.9994 13.6202C26.1455 13.2662 26.2207 12.8868 26.2207 12.5036C26.2207 12.4298 26.2207 12.3614 26.2207 12.2876C25.954 12.6113 25.5944 12.8447 25.1909 12.9559C24.7873 13.0671 24.3594 13.0508 23.9654 12.9092C23.5714 12.7676 23.2305 12.5076 22.989 12.1645C22.7475 11.8215 22.6172 11.412 22.6158 10.992C22.6121 10.4726 22.8097 9.97213 23.1668 9.59627C22.4225 9.6315 21.7203 9.95328 21.2063 10.4947C20.6923 11.0362 20.4059 11.7557 20.4067 12.5036Z" fill="#3F4898"/>
<path d="M43.2166 11.5871C37.9694 14.2785 34.0444 18.708 31.4995 24.5805C37.6598 22.9583 44.0877 26.3344 45.7878 32.9391C48.6528 26.0184 47.32 17.8126 43.2166 11.5871Z" fill="url(#paint1_linear_149_5)"/>
</g>
<path d="M59.1573 38.1V17.716H67.6312C68.796 17.716 69.8443 17.9975 70.7762 18.5605C71.7274 19.1235 72.4845 19.8903 73.0475 20.861C73.6105 21.8316 73.892 22.9188 73.892 24.1224C73.892 25.3454 73.6105 26.452 73.0475 27.4421C72.4845 28.4127 71.7274 29.1893 70.7762 29.7717C69.8443 30.3541 68.796 30.6453 67.6312 30.6453H62.9429V38.1H59.1573ZM62.9429 27.1509H67.3691C67.8545 27.1509 68.2913 27.015 68.6795 26.7432C69.0872 26.4714 69.4075 26.1123 69.6405 25.6658C69.8929 25.2192 70.019 24.7145 70.019 24.1515C70.019 23.5885 69.8929 23.0935 69.6405 22.6664C69.4075 22.2199 69.0872 21.8704 68.6795 21.6181C68.2913 21.3463 67.8545 21.2104 67.3691 21.2104H62.9429V27.1509ZM82.7675 38.3912C81.5056 38.3912 80.3602 38.0418 79.3313 37.3429C78.3024 36.644 77.4773 35.6927 76.8561 34.4891C76.2349 33.2855 75.9243 31.9168 75.9243 30.3832C75.9243 28.8495 76.2349 27.4809 76.8561 26.2773C77.4773 25.0736 78.3218 24.1321 79.3895 23.4526C80.4573 22.7732 81.6609 22.4334 83.0004 22.4334C83.777 22.4334 84.4855 22.5499 85.1262 22.7829C85.7668 22.9964 86.3298 23.307 86.8151 23.7147C87.3005 24.1224 87.6984 24.5883 88.0091 25.1125C88.3391 25.6366 88.5623 26.1996 88.6788 26.8014L87.8926 26.5976V22.7538H91.5035V38.1H87.8635V34.4309L88.7079 34.2853C88.572 34.8094 88.3197 35.3239 87.9508 35.8286C87.6014 36.314 87.1549 36.7508 86.6113 37.139C86.0871 37.5079 85.495 37.8088 84.835 38.0418C84.1943 38.2747 83.5052 38.3912 82.7675 38.3912ZM83.7575 35.2171C84.5923 35.2171 85.33 35.0133 85.9707 34.6056C86.6113 34.1979 87.1063 33.6349 87.4558 32.9166C87.8246 32.1789 88.0091 31.3344 88.0091 30.3832C88.0091 29.4513 87.8246 28.6263 87.4558 27.908C87.1063 27.1897 86.6113 26.6267 85.9707 26.219C85.33 25.8113 84.5923 25.6075 83.7575 25.6075C82.9228 25.6075 82.1851 25.8113 81.5444 26.219C80.9232 26.6267 80.4379 27.1897 80.0884 27.908C79.739 28.6263 79.5643 29.4513 79.5643 30.3832C79.5643 31.3344 79.739 32.1789 80.0884 32.9166C80.4379 33.6349 80.9232 34.1979 81.5444 34.6056C82.1851 35.0133 82.9228 35.2171 83.7575 35.2171ZM95.656 38.1V22.7538H99.1795L99.2378 27.6459L98.7427 26.5394C98.9563 25.7628 99.3251 25.0639 99.8493 24.4427C100.373 23.8215 100.975 23.3361 101.655 22.9867C102.354 22.6179 103.082 22.4334 103.839 22.4334C104.169 22.4334 104.479 22.4625 104.771 22.5208C105.081 22.579 105.334 22.647 105.528 22.7246L104.567 26.6558C104.353 26.5394 104.091 26.4423 103.78 26.3646C103.47 26.287 103.159 26.2482 102.849 26.2482C102.363 26.2482 101.897 26.3452 101.451 26.5394C101.024 26.7141 100.645 26.9664 100.315 27.2965C99.9852 27.6265 99.7231 28.0148 99.529 28.4613C99.3543 28.8884 99.2669 29.3737 99.2669 29.9173V38.1H95.656ZM107.913 38.1V22.7538H111.436L111.494 27.6459L110.999 26.5394C111.213 25.7628 111.582 25.0639 112.106 24.4427C112.63 23.8215 113.232 23.3361 113.911 22.9867C114.61 22.6179 115.338 22.4334 116.095 22.4334C116.425 22.4334 116.736 22.4625 117.027 22.5208C117.338 22.579 117.59 22.647 117.784 22.7246L116.823 26.6558C116.61 26.5394 116.348 26.4423 116.037 26.3646C115.726 26.287 115.416 26.2482 115.105 26.2482C114.62 26.2482 114.154 26.3452 113.707 26.5394C113.28 26.7141 112.902 26.9664 112.572 27.2965C112.242 27.6265 111.98 28.0148 111.786 28.4613C111.611 28.8884 111.523 29.3737 111.523 29.9173V38.1H107.913ZM126.533 38.3912C124.999 38.3912 123.631 38.0515 122.427 37.372C121.223 36.6731 120.272 35.7219 119.573 34.5182C118.874 33.3146 118.525 31.946 118.525 30.4123C118.525 28.8787 118.874 27.51 119.573 26.3064C120.272 25.1028 121.223 24.1612 122.427 23.4817C123.631 22.7829 124.999 22.4334 126.533 22.4334C128.047 22.4334 129.406 22.7829 130.61 23.4817C131.813 24.1612 132.755 25.1028 133.434 26.3064C134.133 27.51 134.483 28.8787 134.483 30.4123C134.483 31.946 134.133 33.3146 133.434 34.5182C132.755 35.7219 131.813 36.6731 130.61 37.372C129.406 38.0515 128.047 38.3912 126.533 38.3912ZM126.533 35.2171C127.368 35.2171 128.105 35.0036 128.746 34.5765C129.406 34.1494 129.921 33.5767 130.289 32.8584C130.678 32.1401 130.862 31.3247 130.843 30.4123C130.862 29.4805 130.678 28.6554 130.289 27.9371C129.921 27.2188 129.406 26.6558 128.746 26.2482C128.105 25.8211 127.368 25.6075 126.533 25.6075C125.698 25.6075 124.941 25.8211 124.262 26.2482C123.602 26.6558 123.087 27.2285 122.718 27.9662C122.349 28.6845 122.165 29.4999 122.165 30.4123C122.165 31.3247 122.349 32.1401 122.718 32.8584C123.087 33.5767 123.602 34.1494 124.262 34.5765C124.941 35.0036 125.698 35.2171 126.533 35.2171ZM139.346 38.1V18.8517H142.928V38.1H139.346ZM136.318 26.0734V22.7538H146.277V26.0734H136.318ZM150.373 38.4203C149.675 38.4203 149.131 38.2165 148.743 37.8088C148.374 37.4011 148.189 36.8284 148.189 36.0907C148.189 35.4112 148.384 34.858 148.772 34.4309C149.179 33.9844 149.713 33.7611 150.373 33.7611C151.072 33.7611 151.606 33.965 151.975 34.3726C152.363 34.7609 152.557 35.3336 152.557 36.0907C152.557 36.7702 152.354 37.3332 151.946 37.7797C151.558 38.2068 151.033 38.4203 150.373 38.4203ZM156.351 38.1V22.7538H159.933V38.1H156.351ZM158.098 19.4923C157.38 19.4923 156.817 19.3176 156.409 18.9682C156.021 18.5993 155.827 18.0848 155.827 17.4248C155.827 16.8036 156.031 16.2988 156.439 15.9105C156.846 15.5223 157.4 15.3281 158.098 15.3281C158.836 15.3281 159.399 15.5126 159.787 15.8814C160.195 16.2309 160.399 16.7453 160.399 17.4248C160.399 18.0266 160.195 18.5216 159.787 18.9099C159.38 19.2982 158.817 19.4923 158.098 19.4923ZM171.493 38.3912C169.959 38.3912 168.59 38.0515 167.387 37.372C166.183 36.6731 165.232 35.7219 164.533 34.5182C163.834 33.3146 163.485 31.946 163.485 30.4123C163.485 28.8787 163.834 27.51 164.533 26.3064C165.232 25.1028 166.183 24.1612 167.387 23.4817C168.59 22.7829 169.959 22.4334 171.493 22.4334C173.007 22.4334 174.366 22.7829 175.569 23.4817C176.773 24.1612 177.715 25.1028 178.394 26.3064C179.093 27.51 179.442 28.8787 179.442 30.4123C179.442 31.946 179.093 33.3146 178.394 34.5182C177.715 35.7219 176.773 36.6731 175.569 37.372C174.366 38.0515 173.007 38.3912 171.493 38.3912ZM171.493 35.2171C172.327 35.2171 173.065 35.0036 173.706 34.5765C174.366 34.1494 174.88 33.5767 175.249 32.8584C175.637 32.1401 175.822 31.3247 175.802 30.4123C175.822 29.4805 175.637 28.6554 175.249 27.9371C174.88 27.2188 174.366 26.6558 173.706 26.2482C173.065 25.8211 172.327 25.6075 171.493 25.6075C170.658 25.6075 169.901 25.8211 169.221 26.2482C168.561 26.6558 168.047 27.2285 167.678 27.9662C167.309 28.6845 167.125 29.4999 167.125 30.4123C167.125 31.3247 167.309 32.1401 167.678 32.8584C168.047 33.5767 168.561 34.1494 169.221 34.5765C169.901 35.0036 170.658 35.2171 171.493 35.2171Z" fill="#36297D"/>
<defs>
<linearGradient id="paint0_linear_149_5" x1="21.8025" y1="-0.237006" x2="21.8871" y2="48.1393" gradientUnits="userSpaceOnUse">
<stop stop-color="#1F5FA4"/>
<stop offset="1" stop-color="#392379"/>
</linearGradient>
<linearGradient id="paint1_linear_149_5" x1="39.4386" y1="8.59029" x2="39.4016" y2="29.9475" gradientUnits="userSpaceOnUse">
<stop stop-color="#392379"/>
<stop offset="1" stop-color="#1F5FA4"/>
</linearGradient>
<clipPath id="clip0_149_5">
<rect width="47.32" height="49.14" fill="white" transform="matrix(-1 0 0 1 47.32 0)"/>
</clipPath>
</defs>
</svg>
