<svg width="100" height="27" viewBox="0 0 100 27" fill="none" xmlns="http://www.w3.org/2000/svg">
<g clip-path="url(#clip0_18_22)">
<path d="M12.7232 5.27267C12.527 5.47918 12.4184 5.75418 12.4205 6.03955C12.4212 6.27035 12.4928 6.49531 12.6255 6.6838C12.7582 6.8723 12.9455 7.01517 13.162 7.09298C13.3785 7.17079 13.6136 7.17974 13.8353 7.11863C14.0571 7.05752 14.2547 6.92931 14.4012 6.75145C14.4012 6.79196 14.4012 6.82958 14.4012 6.8701C14.4019 7.18363 14.3109 7.49048 14.1396 7.75267C13.9683 8.01486 13.7242 8.22088 13.4375 8.34524C13.1507 8.4696 12.834 8.50684 12.5263 8.45235C12.2187 8.39785 11.9338 8.25402 11.7068 8.03865C11.4798 7.82328 11.3207 7.54582 11.2491 7.24061C11.1776 6.93541 11.1968 6.61585 11.3044 6.32149C11.4119 6.02713 11.6031 5.77089 11.8543 5.58447C12.1054 5.39805 12.4055 5.28965 12.7175 5.27267H12.7232ZM12.7232 5.27267C12.527 5.47918 12.4184 5.75418 12.4205 6.03955C12.4212 6.27035 12.4928 6.49531 12.6255 6.6838C12.7582 6.8723 12.9455 7.01517 13.162 7.09298C13.3785 7.17079 13.6136 7.17974 13.8353 7.11863C14.0571 7.05752 14.2547 6.92931 14.4012 6.75145C14.4012 6.79196 14.4012 6.82958 14.4012 6.8701C14.4019 7.18363 14.3109 7.49048 14.1396 7.75267C13.9683 8.01486 13.7242 8.22088 13.4375 8.34524C13.1507 8.4696 12.834 8.50684 12.5263 8.45235C12.2187 8.39785 11.9338 8.25402 11.7068 8.03865C11.4798 7.82328 11.3207 7.54582 11.2491 7.24061C11.1776 6.93541 11.1968 6.61585 11.3044 6.32149C11.4119 6.02713 11.6031 5.77089 11.8543 5.58447C12.1054 5.39805 12.4055 5.28965 12.7175 5.27267H12.7232ZM12.7232 5.27267C12.527 5.47918 12.4184 5.75418 12.4205 6.03955C12.4212 6.27035 12.4928 6.49531 12.6255 6.6838C12.7582 6.8723 12.9455 7.01517 13.162 7.09298C13.3785 7.17079 13.6136 7.17974 13.8353 7.11863C14.0571 7.05752 14.2547 6.92931 14.4012 6.75145C14.4012 6.79196 14.4012 6.82958 14.4012 6.8701C14.4019 7.18363 14.3109 7.49048 14.1396 7.75267C13.9683 8.01486 13.7242 8.22088 13.4375 8.34524C13.1507 8.4696 12.834 8.50684 12.5263 8.45235C12.2187 8.39785 11.9338 8.25402 11.7068 8.03865C11.4798 7.82328 11.3207 7.54582 11.2491 7.24061C11.1776 6.93541 11.1968 6.61585 11.3044 6.32149C11.4119 6.02713 11.6031 5.77089 11.8543 5.58447C12.1054 5.39805 12.4055 5.28965 12.7175 5.27267H12.7232ZM12.7232 5.27267C12.527 5.47918 12.4184 5.75418 12.4205 6.03955C12.4212 6.27035 12.4928 6.49531 12.6255 6.6838C12.7582 6.8723 12.9455 7.01517 13.162 7.09298C13.3785 7.17079 13.6136 7.17974 13.8353 7.11863C14.0571 7.05752 14.2547 6.92931 14.4012 6.75145C14.4012 6.79196 14.4012 6.82958 14.4012 6.8701C14.4019 7.18363 14.3109 7.49048 14.1396 7.75267C13.9683 8.01486 13.7242 8.22088 13.4375 8.34524C13.1507 8.4696 12.834 8.50684 12.5263 8.45235C12.2187 8.39785 11.9338 8.25402 11.7068 8.03865C11.4798 7.82328 11.3207 7.54582 11.2491 7.24061C11.1776 6.93541 11.1968 6.61585 11.3044 6.32149C11.4119 6.02713 11.6031 5.77089 11.8543 5.58447C12.1054 5.39805 12.4055 5.28965 12.7175 5.27267H12.7232ZM12.7232 5.27267C12.527 5.47918 12.4184 5.75418 12.4205 6.03955C12.4212 6.27035 12.4928 6.49531 12.6255 6.6838C12.7582 6.8723 12.9455 7.01517 13.162 7.09298C13.3785 7.17079 13.6136 7.17974 13.8353 7.11863C14.0571 7.05752 14.2547 6.92931 14.4012 6.75145C14.4012 6.79196 14.4012 6.82958 14.4012 6.8701C14.4019 7.18363 14.3109 7.49048 14.1396 7.75267C13.9683 8.01486 13.7242 8.22088 13.4375 8.34524C13.1507 8.4696 12.834 8.50684 12.5263 8.45235C12.2187 8.39785 11.9338 8.25402 11.7068 8.03865C11.4798 7.82328 11.3207 7.54582 11.2491 7.24061C11.1776 6.93541 11.1968 6.61585 11.3044 6.32149C11.4119 6.02713 11.6031 5.77089 11.8543 5.58447C12.1054 5.39805 12.4055 5.28965 12.7175 5.27267H12.7232ZM12.7232 5.27267C12.527 5.47918 12.4184 5.75418 12.4205 6.03955C12.4212 6.27035 12.4928 6.49531 12.6255 6.6838C12.7582 6.8723 12.9455 7.01517 13.162 7.09298C13.3785 7.17079 13.6136 7.17974 13.8353 7.11863C14.0571 7.05752 14.2547 6.92931 14.4012 6.75145C14.4012 6.79196 14.4012 6.82958 14.4012 6.8701C14.4019 7.18363 14.3109 7.49048 14.1396 7.75267C13.9683 8.01486 13.7242 8.22088 13.4375 8.34524C13.1507 8.4696 12.834 8.50684 12.5263 8.45235C12.2187 8.39785 11.9338 8.25402 11.7068 8.03865C11.4798 7.82328 11.3207 7.54582 11.2491 7.24061C11.1776 6.93541 11.1968 6.61585 11.3044 6.32149C11.4119 6.02713 11.6031 5.77089 11.8543 5.58447C12.1054 5.39805 12.4055 5.28965 12.7175 5.27267H12.7232ZM12.7232 5.27267C12.527 5.47918 12.4184 5.75418 12.4205 6.03955C12.4212 6.27035 12.4928 6.49531 12.6255 6.6838C12.7582 6.8723 12.9455 7.01517 13.162 7.09298C13.3785 7.17079 13.6136 7.17974 13.8353 7.11863C14.0571 7.05752 14.2547 6.92931 14.4012 6.75145C14.4012 6.79196 14.4012 6.82958 14.4012 6.8701C14.4019 7.18363 14.3109 7.49048 14.1396 7.75267C13.9683 8.01486 13.7242 8.22088 13.4375 8.34524C13.1507 8.4696 12.834 8.50684 12.5263 8.45235C12.2187 8.39785 11.9338 8.25402 11.7068 8.03865C11.4798 7.82328 11.3207 7.54582 11.2491 7.24061C11.1776 6.93541 11.1968 6.61585 11.3044 6.32149C11.4119 6.02713 11.6031 5.77089 11.8543 5.58447C12.1054 5.39805 12.4055 5.28965 12.7175 5.27267H12.7232ZM12.7232 5.27267C12.527 5.47918 12.4184 5.75418 12.4205 6.03955C12.4212 6.27035 12.4928 6.49531 12.6255 6.6838C12.7582 6.8723 12.9455 7.01517 13.162 7.09298C13.3785 7.17079 13.6136 7.17974 13.8353 7.11863C14.0571 7.05752 14.2547 6.92931 14.4012 6.75145C14.4012 6.79196 14.4012 6.82958 14.4012 6.8701C14.4019 7.18363 14.3109 7.49048 14.1396 7.75267C13.9683 8.01486 13.7242 8.22088 13.4375 8.34524C13.1507 8.4696 12.834 8.50684 12.5263 8.45235C12.2187 8.39785 11.9338 8.25402 11.7068 8.03865C11.4798 7.82328 11.3207 7.54582 11.2491 7.24061C11.1776 6.93541 11.1968 6.61585 11.3044 6.32149C11.4119 6.02713 11.6031 5.77089 11.8543 5.58447C12.1054 5.39805 12.4055 5.28965 12.7175 5.27267H12.7232ZM13.4498 3.17977e-07C15.4765 -0.000473429 17.477 0.459886 19.3011 1.34652C21.1252 2.23315 22.7255 3.52302 23.9818 5.11929C18.1694 7.69486 15.9292 13.5116 15.7332 15.2219C15.4646 16.3597 15.3301 17.5252 15.3324 18.6945C15.3315 20.7246 15.7435 22.7335 16.5434 24.5981C16.8085 25.2152 17.1148 25.8137 17.4602 26.3894C15.6099 26.9706 13.6563 27.1436 11.7332 26.8964C9.81015 26.6492 7.96303 25.9877 6.31838 24.9572C4.67373 23.9267 3.27043 22.5516 2.2046 20.926C1.13876 19.3004 0.435579 17.4628 0.143221 15.5391C-0.149136 13.6153 -0.0237637 11.6508 0.510752 9.7802C1.04527 7.90959 1.9763 6.17705 3.24006 4.70126C4.50382 3.22546 6.07046 2.04129 7.83266 1.22985C9.59486 0.418413 11.511 -0.00111685 13.4498 3.17977e-07ZM12.8097 9.30675C13.2898 9.30675 13.7592 9.16385 14.1584 8.8961C14.5576 8.62836 14.8688 8.2478 15.0525 7.80256C15.2362 7.35732 15.2843 6.86739 15.1907 6.39473C15.097 5.92206 14.8658 5.48789 14.5263 5.14712C14.1868 4.80635 13.7542 4.57428 13.2833 4.48026C12.8124 4.38624 12.3243 4.43449 11.8807 4.61892C11.4371 4.80334 11.058 5.11566 10.7912 5.51636C10.5245 5.91707 10.3821 6.38817 10.3821 6.8701C10.3821 7.51634 10.6379 8.13611 11.0931 8.59307C11.5484 9.05003 12.1659 9.30675 12.8097 9.30675ZM12.7232 5.27267C12.527 5.47918 12.4184 5.75418 12.4205 6.03955C12.4212 6.27035 12.4928 6.49531 12.6255 6.6838C12.7582 6.8723 12.9455 7.01517 13.162 7.09298C13.3785 7.17079 13.6136 7.17974 13.8353 7.11863C14.0571 7.05752 14.2547 6.92931 14.4012 6.75145C14.4012 6.79196 14.4012 6.82958 14.4012 6.8701C14.4019 7.18363 14.3109 7.49048 14.1396 7.75267C13.9683 8.01486 13.7242 8.22088 13.4375 8.34524C13.1507 8.4696 12.834 8.50684 12.5263 8.45235C12.2187 8.39785 11.9338 8.25402 11.7068 8.03865C11.4798 7.82328 11.3207 7.54582 11.2491 7.24061C11.1776 6.93541 11.1968 6.61585 11.3044 6.32149C11.4119 6.02713 11.6031 5.77089 11.8543 5.58447C12.1054 5.39805 12.4055 5.28965 12.7175 5.27267H12.7232ZM12.7232 5.27267C12.527 5.47918 12.4184 5.75418 12.4205 6.03955C12.4212 6.27035 12.4928 6.49531 12.6255 6.6838C12.7582 6.8723 12.9455 7.01517 13.162 7.09298C13.3785 7.17079 13.6136 7.17974 13.8353 7.11863C14.0571 7.05752 14.2547 6.92931 14.4012 6.75145C14.4012 6.79196 14.4012 6.82958 14.4012 6.8701C14.4019 7.18363 14.3109 7.49048 14.1396 7.75267C13.9683 8.01486 13.7242 8.22088 13.4375 8.34524C13.1507 8.4696 12.834 8.50684 12.5263 8.45235C12.2187 8.39785 11.9338 8.25402 11.7068 8.03865C11.4798 7.82328 11.3207 7.54582 11.2491 7.24061C11.1776 6.93541 11.1968 6.61585 11.3044 6.32149C11.4119 6.02713 11.6031 5.77089 11.8543 5.58447C12.1054 5.39805 12.4055 5.28965 12.7175 5.27267H12.7232ZM12.7232 5.27267C12.527 5.47918 12.4184 5.75418 12.4205 6.03955C12.4212 6.27035 12.4928 6.49531 12.6255 6.6838C12.7582 6.8723 12.9455 7.01517 13.162 7.09298C13.3785 7.17079 13.6136 7.17974 13.8353 7.11863C14.0571 7.05752 14.2547 6.92931 14.4012 6.75145C14.4012 6.79196 14.4012 6.82958 14.4012 6.8701C14.4019 7.18363 14.3109 7.49048 14.1396 7.75267C13.9683 8.01486 13.7242 8.22088 13.4375 8.34524C13.1507 8.4696 12.834 8.50684 12.5263 8.45235C12.2187 8.39785 11.9338 8.25402 11.7068 8.03865C11.4798 7.82328 11.3207 7.54582 11.2491 7.24061C11.1776 6.93541 11.1968 6.61585 11.3044 6.32149C11.4119 6.02713 11.6031 5.77089 11.8543 5.58447C12.1054 5.39805 12.4055 5.28965 12.7175 5.27267H12.7232ZM12.7232 5.27267C12.527 5.47918 12.4184 5.75418 12.4205 6.03955C12.4212 6.27035 12.4928 6.49531 12.6255 6.6838C12.7582 6.8723 12.9455 7.01517 13.162 7.09298C13.3785 7.17079 13.6136 7.17974 13.8353 7.11863C14.0571 7.05752 14.2547 6.92931 14.4012 6.75145C14.4012 6.79196 14.4012 6.82958 14.4012 6.8701C14.4019 7.18363 14.3109 7.49048 14.1396 7.75267C13.9683 8.01486 13.7242 8.22088 13.4375 8.34524C13.1507 8.4696 12.834 8.50684 12.5263 8.45235C12.2187 8.39785 11.9338 8.25402 11.7068 8.03865C11.4798 7.82328 11.3207 7.54582 11.2491 7.24061C11.1776 6.93541 11.1968 6.61585 11.3044 6.32149C11.4119 6.02713 11.6031 5.77089 11.8543 5.58447C12.1054 5.39805 12.4055 5.28965 12.7175 5.27267H12.7232ZM12.7232 5.27267C12.527 5.47918 12.4184 5.75418 12.4205 6.03955C12.4212 6.27035 12.4928 6.49531 12.6255 6.6838C12.7582 6.8723 12.9455 7.01517 13.162 7.09298C13.3785 7.17079 13.6136 7.17974 13.8353 7.11863C14.0571 7.05752 14.2547 6.92931 14.4012 6.75145C14.4012 6.79196 14.4012 6.82958 14.4012 6.8701C14.4019 7.18363 14.3109 7.49048 14.1396 7.75267C13.9683 8.01486 13.7242 8.22088 13.4375 8.34524C13.1507 8.4696 12.834 8.50684 12.5263 8.45235C12.2187 8.39785 11.9338 8.25402 11.7068 8.03865C11.4798 7.82328 11.3207 7.54582 11.2491 7.24061C11.1776 6.93541 11.1968 6.61585 11.3044 6.32149C11.4119 6.02713 11.6031 5.77089 11.8543 5.58447C12.1054 5.39805 12.4055 5.28965 12.7175 5.27267H12.7232ZM12.7232 5.27267C12.527 5.47918 12.4184 5.75418 12.4205 6.03955C12.4212 6.27035 12.4928 6.49531 12.6255 6.6838C12.7582 6.8723 12.9455 7.01517 13.162 7.09298C13.3785 7.17079 13.6136 7.17974 13.8353 7.11863C14.0571 7.05752 14.2547 6.92931 14.4012 6.75145C14.4012 6.79196 14.4012 6.82958 14.4012 6.8701C14.4019 7.18363 14.3109 7.49048 14.1396 7.75267C13.9683 8.01486 13.7242 8.22088 13.4375 8.34524C13.1507 8.4696 12.834 8.50684 12.5263 8.45235C12.2187 8.39785 11.9338 8.25402 11.7068 8.03865C11.4798 7.82328 11.3207 7.54582 11.2491 7.24061C11.1776 6.93541 11.1968 6.61585 11.3044 6.32149C11.4119 6.02713 11.6031 5.77089 11.8543 5.58447C12.1054 5.39805 12.4055 5.28965 12.7175 5.27267H12.7232ZM12.7232 5.27267C12.527 5.47918 12.4184 5.75418 12.4205 6.03955C12.4212 6.27035 12.4928 6.49531 12.6255 6.6838C12.7582 6.8723 12.9455 7.01517 13.162 7.09298C13.3785 7.17079 13.6136 7.17974 13.8353 7.11863C14.0571 7.05752 14.2547 6.92931 14.4012 6.75145C14.4012 6.79196 14.4012 6.82958 14.4012 6.8701C14.4019 7.18363 14.3109 7.49048 14.1396 7.75267C13.9683 8.01486 13.7242 8.22088 13.4375 8.34524C13.1507 8.4696 12.834 8.50684 12.5263 8.45235C12.2187 8.39785 11.9338 8.25402 11.7068 8.03865C11.4798 7.82328 11.3207 7.54582 11.2491 7.24061C11.1776 6.93541 11.1968 6.61585 11.3044 6.32149C11.4119 6.02713 11.6031 5.77089 11.8543 5.58447C12.1054 5.39805 12.4055 5.28965 12.7175 5.27267H12.7232ZM12.7232 5.27267C12.527 5.47918 12.4184 5.75418 12.4205 6.03955C12.4212 6.27035 12.4928 6.49531 12.6255 6.6838C12.7582 6.8723 12.9455 7.01517 13.162 7.09298C13.3785 7.17079 13.6136 7.17974 13.8353 7.11863C14.0571 7.05752 14.2547 6.92931 14.4012 6.75145C14.4012 6.79196 14.4012 6.82958 14.4012 6.8701C14.4019 7.18363 14.3109 7.49048 14.1396 7.75267C13.9683 8.01486 13.7242 8.22088 13.4375 8.34524C13.1507 8.4696 12.834 8.50684 12.5263 8.45235C12.2187 8.39785 11.9338 8.25402 11.7068 8.03865C11.4798 7.82328 11.3207 7.54582 11.2491 7.24061C11.1776 6.93541 11.1968 6.61585 11.3044 6.32149C11.4119 6.02713 11.6031 5.77089 11.8543 5.58447C12.1054 5.39805 12.4055 5.28965 12.7175 5.27267H12.7232ZM12.7232 5.27267C12.527 5.47918 12.4184 5.75418 12.4205 6.03955C12.4212 6.27035 12.4928 6.49531 12.6255 6.6838C12.7582 6.8723 12.9455 7.01517 13.162 7.09298C13.3785 7.17079 13.6136 7.17974 13.8353 7.11863C14.0571 7.05752 14.2547 6.92931 14.4012 6.75145C14.4012 6.79196 14.4012 6.82958 14.4012 6.8701C14.4019 7.18363 14.3109 7.49048 14.1396 7.75267C13.9683 8.01486 13.7242 8.22088 13.4375 8.34524C13.1507 8.4696 12.834 8.50684 12.5263 8.45235C12.2187 8.39785 11.9338 8.25402 11.7068 8.03865C11.4798 7.82328 11.3207 7.54582 11.2491 7.24061C11.1776 6.93541 11.1968 6.61585 11.3044 6.32149C11.4119 6.02713 11.6031 5.77089 11.8543 5.58447C12.1054 5.39805 12.4055 5.28965 12.7175 5.27267H12.7232Z" fill="url(#paint0_linear_18_22)"/>
<path d="M12.7232 5.27267C12.527 5.47918 12.4184 5.75418 12.4205 6.03955C12.4212 6.27035 12.4928 6.49531 12.6255 6.6838C12.7582 6.8723 12.9455 7.01517 13.162 7.09298C13.3785 7.17079 13.6136 7.17974 13.8353 7.11863C14.0571 7.05752 14.2547 6.92931 14.4012 6.75145C14.4012 6.79196 14.4012 6.82958 14.4012 6.8701C14.4019 7.18363 14.3109 7.49048 14.1396 7.75267C13.9683 8.01486 13.7242 8.22088 13.4375 8.34524C13.1507 8.4696 12.834 8.50684 12.5263 8.45235C12.2187 8.39785 11.9338 8.25402 11.7068 8.03865C11.4798 7.82328 11.3207 7.54582 11.2491 7.24061C11.1776 6.93541 11.1968 6.61585 11.3044 6.32149C11.4119 6.02713 11.6031 5.77089 11.8543 5.58447C12.1054 5.39805 12.4055 5.28965 12.7175 5.27267H12.7232Z" fill="white"/>
<path d="M11.2125 6.8701C11.2125 7.08063 11.2538 7.28911 11.334 7.48362C11.4143 7.67813 11.532 7.85487 11.6803 8.00374C11.8286 8.15261 12.0047 8.27071 12.1985 8.35127C12.3923 8.43184 12.6 8.47331 12.8097 8.47331C13.0195 8.47331 13.2272 8.43184 13.421 8.35127C13.6147 8.27071 13.7908 8.15261 13.9391 8.00374C14.0875 7.85487 14.2051 7.67813 14.2854 7.48362C14.3656 7.28911 14.407 7.08063 14.407 6.8701C14.407 6.82958 14.407 6.79196 14.407 6.75145C14.2604 6.92931 14.0628 7.05752 13.8411 7.11863C13.6194 7.17974 13.3843 7.17079 13.1678 7.09298C12.9513 7.01517 12.764 6.8723 12.6313 6.6838C12.4986 6.49531 12.427 6.27035 12.4263 6.03955C12.4242 5.75418 12.5328 5.47918 12.729 5.27267C12.32 5.29202 11.9342 5.46883 11.6518 5.76634C11.3694 6.06384 11.212 6.45915 11.2125 6.8701Z" fill="#3F4898"/>
<path d="M23.7454 6.36656C20.8623 7.84534 18.7057 10.2791 17.3074 13.5058C20.6922 12.6145 24.224 14.4695 25.1581 18.0984C26.7323 14.2958 26 9.78714 23.7454 6.36656Z" fill="url(#paint1_linear_18_22)"/>
</g>
<path d="M32.504 21V9.8H37.16C37.8 9.8 38.376 9.95467 38.888 10.264C39.4107 10.5733 39.8267 10.9947 40.136 11.528C40.4453 12.0613 40.6 12.6587 40.6 13.32C40.6 13.992 40.4453 14.6 40.136 15.144C39.8267 15.6773 39.4107 16.104 38.888 16.424C38.376 16.744 37.8 16.904 37.16 16.904H34.584V21H32.504ZM34.584 14.984H37.016C37.2827 14.984 37.5227 14.9093 37.736 14.76C37.96 14.6107 38.136 14.4133 38.264 14.168C38.4027 13.9227 38.472 13.6453 38.472 13.336C38.472 13.0267 38.4027 12.7547 38.264 12.52C38.136 12.2747 37.96 12.0827 37.736 11.944C37.5227 11.7947 37.2827 11.72 37.016 11.72H34.584V14.984ZM45.4766 21.16C44.7833 21.16 44.154 20.968 43.5886 20.584C43.0233 20.2 42.57 19.6773 42.2286 19.016C41.8873 18.3547 41.7166 17.6027 41.7166 16.76C41.7166 15.9173 41.8873 15.1653 42.2286 14.504C42.57 13.8427 43.034 13.3253 43.6206 12.952C44.2073 12.5787 44.8686 12.392 45.6046 12.392C46.0313 12.392 46.4206 12.456 46.7726 12.584C47.1246 12.7013 47.434 12.872 47.7006 13.096C47.9673 13.32 48.186 13.576 48.3566 13.864C48.538 14.152 48.6606 14.4613 48.7246 14.792L48.2926 14.68V12.568H50.2766V21H48.2766V18.984L48.7406 18.904C48.666 19.192 48.5273 19.4747 48.3246 19.752C48.1326 20.0187 47.8873 20.2587 47.5886 20.472C47.3006 20.6747 46.9753 20.84 46.6126 20.968C46.2606 21.096 45.882 21.16 45.4766 21.16ZM46.0206 19.416C46.4793 19.416 46.8846 19.304 47.2366 19.08C47.5886 18.856 47.8606 18.5467 48.0526 18.152C48.2553 17.7467 48.3566 17.2827 48.3566 16.76C48.3566 16.248 48.2553 15.7947 48.0526 15.4C47.8606 15.0053 47.5886 14.696 47.2366 14.472C46.8846 14.248 46.4793 14.136 46.0206 14.136C45.562 14.136 45.1566 14.248 44.8046 14.472C44.4633 14.696 44.1966 15.0053 44.0046 15.4C43.8126 15.7947 43.7166 16.248 43.7166 16.76C43.7166 17.2827 43.8126 17.7467 44.0046 18.152C44.1966 18.5467 44.4633 18.856 44.8046 19.08C45.1566 19.304 45.562 19.416 46.0206 19.416ZM52.5583 21V12.568H54.4943L54.5263 15.256L54.2543 14.648C54.3716 14.2213 54.5743 13.8373 54.8623 13.496C55.1503 13.1547 55.4809 12.888 55.8543 12.696C56.2383 12.4933 56.6383 12.392 57.0543 12.392C57.2356 12.392 57.4063 12.408 57.5663 12.44C57.7369 12.472 57.8756 12.5093 57.9823 12.552L57.4543 14.712C57.3369 14.648 57.1929 14.5947 57.0223 14.552C56.8516 14.5093 56.6809 14.488 56.5103 14.488C56.2436 14.488 55.9876 14.5413 55.7423 14.648C55.5076 14.744 55.2996 14.8827 55.1183 15.064C54.9369 15.2453 54.7929 15.4587 54.6863 15.704C54.5903 15.9387 54.5423 16.2053 54.5423 16.504V21H52.5583ZM59.2926 21V12.568H61.2286L61.2606 15.256L60.9886 14.648C61.106 14.2213 61.3086 13.8373 61.5966 13.496C61.8846 13.1547 62.2153 12.888 62.5886 12.696C62.9726 12.4933 63.3726 12.392 63.7886 12.392C63.97 12.392 64.1406 12.408 64.3006 12.44C64.4713 12.472 64.61 12.5093 64.7166 12.552L64.1886 14.712C64.0713 14.648 63.9273 14.5947 63.7566 14.552C63.586 14.5093 63.4153 14.488 63.2446 14.488C62.978 14.488 62.722 14.5413 62.4766 14.648C62.242 14.744 62.034 14.8827 61.8526 15.064C61.6713 15.2453 61.5273 15.4587 61.4206 15.704C61.3246 15.9387 61.2766 16.2053 61.2766 16.504V21H59.2926ZM69.5236 21.16C68.681 21.16 67.929 20.9733 67.2676 20.6C66.6063 20.216 66.0836 19.6933 65.6996 19.032C65.3156 18.3707 65.1236 17.6187 65.1236 16.776C65.1236 15.9333 65.3156 15.1813 65.6996 14.52C66.0836 13.8587 66.6063 13.3413 67.2676 12.968C67.929 12.584 68.681 12.392 69.5236 12.392C70.3556 12.392 71.1023 12.584 71.7636 12.968C72.425 13.3413 72.9423 13.8587 73.3156 14.52C73.6996 15.1813 73.8916 15.9333 73.8916 16.776C73.8916 17.6187 73.6996 18.3707 73.3156 19.032C72.9423 19.6933 72.425 20.216 71.7636 20.6C71.1023 20.9733 70.3556 21.16 69.5236 21.16ZM69.5236 19.416C69.9823 19.416 70.3876 19.2987 70.7396 19.064C71.1023 18.8293 71.385 18.5147 71.5876 18.12C71.801 17.7253 71.9023 17.2773 71.8916 16.776C71.9023 16.264 71.801 15.8107 71.5876 15.416C71.385 15.0213 71.1023 14.712 70.7396 14.488C70.3876 14.2533 69.9823 14.136 69.5236 14.136C69.065 14.136 68.649 14.2533 68.2756 14.488C67.913 14.712 67.6303 15.0267 67.4276 15.432C67.225 15.8267 67.1236 16.2747 67.1236 16.776C67.1236 17.2773 67.225 17.7253 67.4276 18.12C67.6303 18.5147 67.913 18.8293 68.2756 19.064C68.649 19.2987 69.065 19.416 69.5236 19.416ZM76.564 21V10.424H78.532V21H76.564ZM74.9 14.392V12.568H80.372V14.392H74.9ZM82.6228 21.176C82.2388 21.176 81.9401 21.064 81.7268 20.84C81.5241 20.616 81.4228 20.3013 81.4228 19.896C81.4228 19.5227 81.5294 19.2187 81.7428 18.984C81.9668 18.7387 82.2601 18.616 82.6228 18.616C83.0068 18.616 83.3001 18.728 83.5028 18.952C83.7161 19.1653 83.8228 19.48 83.8228 19.896C83.8228 20.2693 83.7108 20.5787 83.4868 20.824C83.2734 21.0587 82.9854 21.176 82.6228 21.176ZM85.9073 21V12.568H87.8753V21H85.9073ZM86.8673 10.776C86.4726 10.776 86.1633 10.68 85.9393 10.488C85.7259 10.2853 85.6193 10.0027 85.6193 9.64C85.6193 9.29867 85.7313 9.02133 85.9553 8.808C86.1793 8.59467 86.4833 8.488 86.8673 8.488C87.2726 8.488 87.5819 8.58933 87.7953 8.792C88.0193 8.984 88.1313 9.26667 88.1313 9.64C88.1313 9.97067 88.0193 10.2427 87.7953 10.456C87.5713 10.6693 87.2619 10.776 86.8673 10.776ZM94.2268 21.16C93.3841 21.16 92.6321 20.9733 91.9708 20.6C91.3094 20.216 90.7868 19.6933 90.4028 19.032C90.0188 18.3707 89.8268 17.6187 89.8268 16.776C89.8268 15.9333 90.0188 15.1813 90.4028 14.52C90.7868 13.8587 91.3094 13.3413 91.9708 12.968C92.6321 12.584 93.3841 12.392 94.2268 12.392C95.0588 12.392 95.8054 12.584 96.4668 12.968C97.1281 13.3413 97.6454 13.8587 98.0188 14.52C98.4028 15.1813 98.5948 15.9333 98.5948 16.776C98.5948 17.6187 98.4028 18.3707 98.0188 19.032C97.6454 19.6933 97.1281 20.216 96.4668 20.6C95.8054 20.9733 95.0588 21.16 94.2268 21.16ZM94.2268 19.416C94.6854 19.416 95.0908 19.2987 95.4428 19.064C95.8054 18.8293 96.0881 18.5147 96.2908 18.12C96.5041 17.7253 96.6054 17.2773 96.5948 16.776C96.6054 16.264 96.5041 15.8107 96.2908 15.416C96.0881 15.0213 95.8054 14.712 95.4428 14.488C95.0908 14.2533 94.6854 14.136 94.2268 14.136C93.7681 14.136 93.3521 14.2533 92.9788 14.488C92.6161 14.712 92.3334 15.0267 92.1308 15.432C91.9281 15.8267 91.8268 16.2747 91.8268 16.776C91.8268 17.2773 91.9281 17.7253 92.1308 18.12C92.3334 18.5147 92.6161 18.8293 92.9788 19.064C93.3521 19.2987 93.7681 19.416 94.2268 19.416Z" fill="#36297D"/>
<defs>
<linearGradient id="paint0_linear_18_22" x1="11.9794" y1="-0.130225" x2="12.0258" y2="26.4502" gradientUnits="userSpaceOnUse">
<stop stop-color="#1F5FA4"/>
<stop offset="1" stop-color="#392379"/>
</linearGradient>
<linearGradient id="paint1_linear_18_22" x1="21.6695" y1="4.71994" x2="21.6492" y2="16.4547" gradientUnits="userSpaceOnUse">
<stop stop-color="#392379"/>
<stop offset="1" stop-color="#1F5FA4"/>
</linearGradient>
<clipPath id="clip0_18_22">
<rect width="26" height="27" fill="white" transform="matrix(-1 0 0 1 26 0)"/>
</clipPath>
</defs>
</svg>
