<svg width="48" height="56" viewBox="0 0 48 56" fill="none" xmlns="http://www.w3.org/2000/svg">
<path d="M11.4009 35.3732C10.5526 36.001 8.22495 37.175 5.70047 36.8492" stroke="#C43737" stroke-width="2.85022" stroke-linecap="round"/>
<path d="M30.1818 39.2923C30.4363 40.1745 31.7494 42.1629 34.9661 43.0587" stroke="#C43737" stroke-width="2.85022" stroke-linecap="round"/>
<path d="M34.6098 36.3403C35.2715 37.0698 37.3379 38.4474 40.3103 38.1217" stroke="#C43737" stroke-width="2.85022" stroke-linecap="round"/>
<path d="M28.095 24.0742C27.5691 24.9903 27.1484 27.2908 29.6728 29.1638" stroke="#C43737" stroke-width="2.85022" stroke-linecap="round"/>
<path d="M32.1159 25.6011C31.4203 25.143 29.683 24.1658 28.2986 23.9215" stroke="#C43737" stroke-width="2.85022" stroke-linecap="round"/>
<path d="M39.8522 24.4304C38.953 24.0741 36.1062 23.7585 31.9123 25.3465" stroke="#C43737" stroke-width="2.85022" stroke-linecap="round"/>
<path d="M43.8731 54.0524H4.02086L23.9724 24.0742M7.58364 25.2448C7.68543 25.7877 8.52014 27.1178 11.0446 28.095C16.5924 24.0742 22.4455 29.1129 29.622 29.1129" stroke="#C43737" stroke-width="2.85022" stroke-linecap="round"/>
<path d="M11.0955 28.2477C4.73339 40.4629 35.9841 49.5735 39.8013 24.634" stroke="#C43737" stroke-width="2.85022" stroke-linecap="round"/>
<circle cx="33.9482" cy="27.8405" r="1.22152" fill="#C43737"/>
<circle cx="23.9724" cy="23.9724" r="22.7" stroke="#C43737" stroke-width="2.54484"/>
</svg>
