<svg width="58" height="67" viewBox="0 0 58 67" fill="none" xmlns="http://www.w3.org/2000/svg">
<path d="M13.5844 42.1479C12.5737 42.8959 9.8002 44.2948 6.79222 43.9066" stroke="#C43737" stroke-width="3.3961" stroke-linecap="round"/>
<path d="M35.9623 46.8176C36.2655 47.8688 37.8302 50.238 41.6629 51.3053" stroke="#C43737" stroke-width="3.3961" stroke-linecap="round"/>
<path d="M41.2384 43.3003C42.0268 44.1695 44.489 45.811 48.0306 45.4229" stroke="#C43737" stroke-width="3.3961" stroke-linecap="round"/>
<path d="M33.4759 28.6848C32.8492 29.7764 32.3479 32.5176 35.3559 34.7493" stroke="#C43737" stroke-width="3.3961" stroke-linecap="round"/>
<path d="M38.2668 30.5044C37.438 29.9586 35.368 28.7943 33.7185 28.5032" stroke="#C43737" stroke-width="3.3961" stroke-linecap="round"/>
<path d="M47.4848 29.1095C46.4134 28.6849 43.0214 28.309 38.0242 30.2011" stroke="#C43737" stroke-width="3.3961" stroke-linecap="round"/>
<path d="M52.2758 64.4046H4.79094L28.5637 28.6848M9.03607 30.0796C9.15736 30.7265 10.1519 32.3114 13.1599 33.4757C19.7702 28.6848 26.7443 34.6886 35.2952 34.6886" stroke="#C43737" stroke-width="3.3961" stroke-linecap="round"/>
<path d="M13.2205 33.6578C5.63994 48.2126 42.8758 59.068 47.4241 29.3521" stroke="#C43737" stroke-width="3.3961" stroke-linecap="round"/>
<circle cx="40.45" cy="33.1725" r="1.45547" fill="#C43737"/>
<circle cx="28.5637" cy="28.5637" r="27.0475" stroke="#C43737" stroke-width="3.03224"/>
</svg>
